<?xml version="1.0" encoding="UTF-8" standalone="no"?>
<svg
   xmlns:dc="http://purl.org/dc/elements/1.1/"
   xmlns:cc="http://creativecommons.org/ns#"
   xmlns:rdf="http://www.w3.org/1999/02/22-rdf-syntax-ns#"
   xmlns:svg="http://www.w3.org/2000/svg"
   xmlns="http://www.w3.org/2000/svg"
   xmlns:sodipodi="http://sodipodi.sourceforge.net/DTD/sodipodi-0.dtd"
   xmlns:inkscape="http://www.inkscape.org/namespaces/inkscape"
   inkscape:version="1.0 (4035a4fb49, 2020-05-01)"
   sodipodi:docname="clock.svg"
   id="svg4"
   version="1.1"
   viewBox="0 0 512 512">
  <metadata
     id="metadata10">
    <rdf:RDF>
      <cc:Work
         rdf:about="">
        <dc:format>image/svg+xml</dc:format>
        <dc:type
           rdf:resource="http://purl.org/dc/dcmitype/StillImage" />
      </cc:Work>
    </rdf:RDF>
  </metadata>
  <defs
     id="defs8" />
  <sodipodi:namedview
     inkscape:current-layer="svg4"
     inkscape:window-maximized="1"
     inkscape:window-y="-8"
     inkscape:window-x="-8"
     inkscape:cy="256"
     inkscape:cx="256"
     inkscape:zoom="1.109375"
     showgrid="false"
     id="namedview6"
     inkscape:window-height="777"
     inkscape:window-width="1280"
     inkscape:pageshadow="2"
     inkscape:pageopacity="0"
     guidetolerance="10"
     gridtolerance="10"
     objecttolerance="10"
     borderopacity="1"
     bordercolor="#666666"
     pagecolor="#ffffff" />
  <path
     id="path2"
     d="M256,8C119,8,8,119,8,256S119,504,256,504,504,393,504,256,393,8,256,8Zm92.49,313h0l-20,25a16,16,0,0,1-22.49,2.5h0l-67-49.72a40,40,0,0,1-15-31.23V112a16,16,0,0,1,16-16h32a16,16,0,0,1,16,16V256l58,42.5A16,16,0,0,1,348.49,321Z" />
  <path
     id="path12"
     d="M 238.85749,502.92129 C 158.78678,497.4828 85.080242,452.18808 43.752188,383.02365 -3.2264654,304.40268 -3.2249239,207.57349 43.756232,128.97315 95.724787,42.02881 195.65532,-4.4677237 295.69641,11.748268 c 39.1288,6.342517 77.40727,22.695042 109.22833,46.662233 50.66663,38.161435 85.18584,95.345459 95.33314,157.927529 16.20581,99.94709 -30.34415,199.97155 -117.23423,251.90765 -34.36307,20.53955 -71.0672,31.94874 -111.70645,34.72308 -14.42404,0.9847 -17.32566,0.98045 -32.45971,-0.0475 z m 84.27499,-152.26253 c 2.7365,-1.32472 6.51244,-5.25983 14.48177,-15.09227 11.6506,-14.37432 14.83645,-19.59479 14.83645,-24.31159 0,-3.43227 -2.04486,-8.86324 -4.25792,-11.30863 -0.81672,-0.90247 -14.59279,-11.24142 -30.6135,-22.97546 L 288.4507,255.63618 v -73.31183 c 0,-63.93478 -0.17734,-73.73627 -1.38649,-76.63017 -1.86766,-4.46996 -3.78956,-6.480181 -8.07829,-8.449577 -3.14359,-1.443537 -6.08919,-1.655714 -22.98592,-1.655714 -24.12987,0 -27.26856,1.021026 -31.06421,10.105291 -1.21286,2.90278 -1.38649,13.47605 -1.38649,84.42968 0,56.23752 0.30848,82.5762 1.00591,85.88811 1.43786,6.82793 5.12314,13.92444 9.81099,18.8924 4.18609,4.43623 69.23077,53.09686 74.78214,55.94534 4.09564,2.10152 9.39809,2.02911 13.98414,-0.19095 z"
     style="fill:#5599ff;stroke-width:0.901408" />
  <path
     id="path14"
     d="M 236.61972,502.41905 C 200.28164,498.54898 173.63028,490.86578 143.91981,475.69503 80.847774,443.48917 34.222274,385.19944 16.856991,316.84507 10.668016,292.48362 8.5048773,272.79661 9.3296799,248.33803 10.587891,211.02719 18.629247,179.32295 35.279205,146.02817 59.567904,97.458254 97.708728,59.31543 146.04569,35.255877 c 25.6573,-12.770835 50.35735,-20.304381 80.65854,-24.600959 10.7455,-1.5236656 46.03012,-1.5230977 58.14084,9.36e-4 38.17245,4.803685 76.00713,18.790319 107.26761,39.654425 15.95717,10.650261 25.2289,18.191442 37.88766,30.816033 39.38476,39.278418 64.24466,90.169618 71.3337,146.028618 1.75733,13.84712 1.49923,47.29409 -0.46952,60.84507 -12.08789,83.20131 -61.13284,151.81874 -134.89269,188.72464 -34.42423,17.22424 -67.30012,25.19396 -106.3662,25.78514 -10.65915,0.1613 -21.00281,0.12048 -22.98591,-0.0907 z m 86.72682,-151.4718 c 4.48324,-2.12744 22.47412,-23.50808 27.19905,-32.32376 2.29201,-4.27639 2.45158,-9.84099 0.42726,-14.90023 -1.53407,-3.83403 -6.20187,-7.53668 -49.20624,-39.03198 l -13.27565,-9.72274 -0.24548,-74.52653 c -0.24024,-72.93523 -0.28441,-74.59388 -2.06892,-77.68145 -1.07986,-1.86838 -3.45514,-3.981986 -5.8248,-5.183095 -3.77803,-1.914969 -5.07527,-2.028169 -23.24219,-2.028169 -11.23682,0 -20.91202,0.420811 -23.2582,1.011586 -4.69494,1.1822 -8.00924,4.637968 -9.39939,9.800578 -0.63917,2.37367 -0.86691,30.90625 -0.69977,87.66848 L 224,278.17949 l 3.33963,6.71308 c 4.93374,9.91742 4.92383,9.90852 41.73079,37.47705 25.39518,19.02107 36.37621,26.94556 39.8482,28.75657 3.37541,1.76064 10.52749,1.67194 14.42792,-0.17894 z"
     style="fill:#1a1a1a;stroke-width:0.901408" />
  <path
     id="path16"
     d="m 232.56338,501.55281 c -1.23944,-0.22575 -7.72958,-1.24848 -14.42253,-2.27272 -34.17311,-5.22964 -68.59001,-18.68362 -97.94768,-38.28893 C 105.19002,450.97193 98.344753,445.40794 84.853463,432.26619 50.212579,398.52282 28.150478,360.06215 16.632677,313.33751 11.156968,291.12402 10.359844,283.7081 10.421126,255.5493 c 0.06096,-28.00963 1.290082,-38.88817 6.815244,-60.31924 8.256186,-32.0242 25.941123,-67.04609 47.458012,-93.9822 33.917431,-42.45985 84.899538,-73.881958 139.366878,-85.896819 21.24446,-4.68628 24.51176,-4.98981 52.84015,-4.908814 23.24837,0.06647 27.95148,0.324133 37.40845,2.049426 38.63739,7.048865 69.61211,19.530851 100.49887,40.498358 14.93182,10.136478 22.75853,16.600138 34.86757,28.795218 37.16112,37.425161 59.90524,81.686131 69.83664,135.904911 2.73751,14.94497 3.00591,57.58738 0.45957,73.01409 -13.56213,82.16437 -60.92914,148.11483 -132.46814,184.43923 -26.70039,13.5573 -48.19266,20.44016 -77.25085,24.73944 -9.09736,1.34599 -52.56105,2.60409 -57.69014,1.66991 z m 98.14067,-156.78657 c 7.38068,-7.68789 18.17982,-21.58829 20.39701,-26.25458 1.70311,-3.58437 1.7397,-11.15715 0.0732,-15.14571 -1.51505,-3.626 -6.35904,-7.56892 -37.03608,-30.14664 -12.39291,-9.12093 -23.141,-17.1464 -23.88466,-17.83437 -1.1738,-1.08591 -1.41155,-11.10426 -1.80282,-75.9711 -0.44458,-73.70609 -0.47592,-74.75402 -2.30921,-77.20853 -4.6103,-6.172533 -4.63629,-6.178365 -28.84736,-6.475413 -20.13014,-0.246977 -22.35125,-0.121323 -25.9435,1.467705 -3.02002,1.335895 -4.37644,2.662905 -5.86497,5.737798 l -1.93636,3.99999 v 85.82242 85.82241 l 3.25458,6.46272 c 1.96362,3.89926 5.16798,8.33082 8.07845,11.17233 6.60983,6.45328 63.15303,48.9903 72.04725,54.20061 3.06991,1.79838 4.59126,2.06965 10.23929,1.82568 l 6.63364,-0.28654 z"
     style="fill:#1a1a1a;stroke-width:0.901408" />
  <path
     id="path18"
     d="m 310.46073,350.26885 c -4.79379,-2.08727 -72.21605,-52.66848 -76.1453,-57.12538 -4.54949,-5.16042 -6.74346,-9.31353 -8.51691,-16.12226 -1.14813,-4.40799 -1.34782,-17.26803 -1.34782,-86.80212 0,-91.660549 -0.51272,-84.73989 6.71152,-90.590872 l 3.3668,-2.72681 20.42563,-0.254259 c 23.01236,-0.28646 24.10615,-0.04415 29.41713,6.516881 l 2.72681,3.36862 0.26409,74.95903 0.26409,74.95902 28.86091,21.12626 c 15.8735,11.61944 30.03324,22.46148 31.4661,24.0934 1.43285,1.63193 2.87315,4.39554 3.20067,6.14135 1.20751,6.43658 -0.0483,8.8543 -13.06218,25.14675 -10.32729,12.92906 -13.10247,15.85837 -16.19709,17.09659 -4.4632,1.78582 -7.68564,1.84607 -11.43445,0.2138 z"
     style="fill:#1a1a1a;stroke-width:0.901408" />
  <path
     id="path20"
     d="M 231.21127,501.46346 C 199.4336,497.33969 173.67039,489.72377 147.6116,476.7504 122.75794,464.37701 104.50068,451.43243 84.847869,432.25031 45.00494,393.36162 21.530391,347.99812 12.020276,291.51428 9.646468,277.41542 9.6676127,235.95334 12.056545,220.39437 20.032497,168.44747 45.864227,117.6944 82.939417,81.126761 102.42061,61.912264 121.65223,48.316505 147.38028,35.570408 c 26.6468,-13.201256 56.83458,-22.193937 83.06786,-24.745204 11.79091,-1.1467019 38.00422,-1.1352926 50.34059,0.02191 22.55229,2.115499 53.57188,10.452169 75.26761,20.228544 49.50489,22.307545 89.12334,58.751652 115.65581,106.389132 15.05561,27.03144 26.65927,63.97688 29.44349,93.74648 2.05684,21.99215 0.77258,51.13449 -3.09522,70.23692 -15.74531,77.76342 -62.98521,139.99736 -132.70036,174.81974 -28.86977,14.4203 -56.30584,22.24073 -87.27555,24.87715 -10.21954,0.86997 -41.01098,1.07913 -46.87324,0.31838 z m 96.95209,-153.98713 c 6.3106,-6.16996 17.18481,-19.6317 21.0698,-26.08336 2.62054,-4.35183 3.21754,-6.23654 3.21754,-10.15763 0,-9.80489 -0.0931,-9.89663 -39.48601,-38.89765 -12.98692,-9.56096 -23.68383,-17.45246 -23.77093,-17.53668 -0.0871,-0.0842 -0.39131,-33.82073 -0.67605,-74.97002 -0.40027,-57.84556 -0.77604,-75.26866 -1.65658,-76.80843 -0.62638,-1.09535 -2.62297,-3.123518 -4.43687,-4.507046 L 279.12625,96 h -23.05608 c -26.23018,0 -27.35567,0.265501 -30.7372,7.25082 -1.73901,3.59229 -1.78367,5.83401 -1.78367,89.51445 v 85.82988 l 2.36459,4.70242 c 5.57443,11.08579 10.79001,15.73828 51.26921,45.7341 33.0486,24.4896 31.38363,23.5212 39.86981,23.18968 6.48005,-0.25314 6.54421,-0.28055 11.11045,-4.74502 z"
     style="fill:#ffffff;stroke-width:0.901408" />
</svg>
